<svg width="10" height="10" viewBox="0 0 10 10" fill="none" xmlns="http://www.w3.org/2000/svg">
<g clip-path="url(#clip0_1861_22162)">
<path d="M0.0541191 2.45006C0.120786 2.15423 0.508286 1.89173 0.916619 1.75839C1.35829 1.62089 3.57079 0.941726 3.57079 0.941726C3.57079 0.941726 5.78328 0.258393 6.22495 0.125059C6.63328 0.00422589 6.90828 0.0667259 7.32495 0.212559C7.05828 0.566726 6.87078 0.770893 6.46245 0.904226C6.02078 1.04173 3.80829 1.72089 3.80829 1.72089C3.80829 1.72089 1.59579 2.40423 1.15412 2.53756C1.09579 2.55423 1.04579 2.55839 0.995786 2.57089C1.63329 2.68339 2.22495 2.87089 3.00412 3.25839C3.28329 3.40006 3.82079 3.68339 4.64162 4.20423C4.89578 4.37506 5.25412 4.60423 5.53745 4.82089C5.82495 5.02506 6.03745 5.19589 6.03745 5.19589C6.03745 5.19589 6.29995 5.39589 6.60828 5.65006C6.91662 5.90423 7.26662 6.21256 7.46662 6.40839C7.99578 6.90839 8.23745 7.16673 8.38328 7.32506C9.23745 8.27089 9.57912 8.94173 9.94995 9.94589C9.14578 9.22923 8.61662 8.77506 7.78745 7.87923C7.64578 7.72923 7.41662 7.48339 6.90828 7.00006C6.71662 6.81673 6.37912 6.51673 6.08745 6.27089C5.79578 6.02506 5.54162 5.83339 5.54162 5.83339C5.54162 5.83339 5.33328 5.67089 5.05829 5.47506C4.78745 5.27089 4.44162 5.05006 4.19995 4.88756C3.41245 4.38756 2.89579 4.11673 2.62912 3.97506C1.77912 3.54173 1.23328 3.20839 0.608285 2.80423C0.724952 2.91673 0.824953 3.04589 0.912453 3.22089C1.02079 3.43756 1.33745 4.10423 1.60829 4.71673C1.87495 5.33339 2.11662 5.89589 2.11662 5.89589C2.11662 5.89589 2.34995 6.46256 2.60412 7.08339C2.85412 7.70839 3.10829 8.39589 3.18745 8.62923C3.33329 9.05423 3.28745 9.34589 3.16245 9.78339C2.79579 9.51256 2.57912 9.32506 2.42079 8.90839C2.33329 8.68339 2.07912 8.00839 1.84162 7.38756C1.59162 6.77089 1.36662 6.21256 1.36662 6.21256C1.36662 6.21256 1.12495 5.65839 0.858286 5.05006C0.579119 4.44589 0.274953 3.79173 0.174953 3.57089C-0.00838089 3.17506 -0.0167141 2.74173 0.0499525 2.44173L0.0541191 2.45006Z" fill="black"/>
</g>
<defs>
<clipPath id="clip0_1861_22162">
<rect width="10" height="10" fill="white" transform="matrix(-1 0 0 1 10 0)"/>
</clipPath>
</defs>
</svg>
