<svg width="30" height="24" viewBox="0 0 30 24" fill="none" xmlns="http://www.w3.org/2000/svg">
<g clip-path="url(#clip0_2478_8832)">
<path d="M0.409948 11.2795C0.614893 10.2995 0.810078 9.68953 1.51275 9.07953C2.28373 8.41953 6.13864 5.14953 6.13864 5.14953C6.13864 5.14953 9.99356 1.86953 10.7645 1.21953C11.4867 0.629531 12.1016 0.539531 13.0775 0.519531C12.8725 1.49953 12.6774 2.10953 11.9747 2.71953C11.2037 3.37953 7.34879 6.64953 7.34879 6.64953C7.34879 6.64953 3.49388 9.92953 2.72289 10.5795C2.60578 10.6795 2.48867 10.7395 2.37156 10.8195C3.90377 10.4995 5.33838 10.3195 7.42687 10.3095C8.14905 10.3095 9.53487 10.3095 11.7697 10.3095C13.1263 10.3095 15.5661 10.3095 15.5661 10.3095C15.5661 10.3095 18.4841 10.3095 19.7138 10.3095C21.3924 10.3095 22.1926 10.3095 22.6904 10.3095C25.6181 10.3295 27.2772 10.6595 29.717 11.2895C27.2675 11.9095 25.6084 12.2495 22.6904 12.2595C22.1926 12.2595 21.3924 12.2595 19.7138 12.2595C18.4841 12.2595 15.5759 12.2595 15.5759 12.2595C15.5759 12.2595 13.136 12.2595 11.7893 12.2595C9.55439 12.2595 8.16857 12.2595 7.44638 12.2595C5.29934 12.2495 3.8257 12.0595 2.22517 11.7195C2.42036 11.8295 2.61554 11.9595 2.82049 12.1295C3.23038 12.4795 4.44053 13.5695 5.52381 14.5795C6.60709 15.5995 7.59277 16.5395 7.59277 16.5395C7.59277 16.5395 8.55894 17.4895 9.63246 18.5395C10.6865 19.5995 11.8088 20.7895 12.1699 21.1995C12.8433 21.9495 12.9799 22.6095 13.0677 23.6495C12.0625 23.4395 11.4574 23.2495 10.7841 22.5295C10.423 22.1395 9.32992 20.9695 8.28568 19.9295C7.24144 18.8995 6.28503 17.9595 6.28503 17.9595C6.28503 17.9595 5.3091 17.0395 4.23558 16.0395C3.14255 15.0495 1.96167 13.9595 1.56154 13.5995C0.829597 12.9295 0.624653 12.2995 0.40019 11.2795H0.409948Z" fill="#000000"/>
</g>
<defs>
<clipPath id="clip0_2478_8832">
<rect width="30" height="24" fill="white" transform="matrix(-1 0 0 1 30 0)"/>
</clipPath>
</defs>
</svg>
