<svg width="18" height="22" viewBox="0 0 18 22" fill="none" xmlns="http://www.w3.org/2000/svg">
<g clip-path="url(#clip0_1791_18828)">
<path d="M9.54011 21.6994C10.2751 21.5491 10.7326 21.406 11.1901 20.8907C11.6851 20.3253 14.1376 17.4983 14.1376 17.4983C14.1376 17.4983 16.5976 14.6714 17.0851 14.106C17.5276 13.5764 17.5951 13.1255 17.6101 12.4099C16.8751 12.5602 16.4176 12.7033 15.9601 13.2186C15.4651 13.784 13.0126 16.6109 13.0126 16.6109C13.0126 16.6109 10.5526 19.4378 10.0651 20.0032C9.99011 20.0891 9.94511 20.175 9.88511 20.2609C10.1251 19.1373 10.2601 18.0852 10.2676 16.5536C10.2676 16.024 10.2676 15.0078 10.2676 13.3689C10.2676 12.3741 10.2676 10.5849 10.2676 10.5849C10.2676 10.5849 10.2676 8.445 10.2676 7.54324C10.2676 6.31227 10.2676 5.72541 10.2676 5.36041C10.2526 3.21337 10.0051 1.99672 9.53261 0.207519C9.06761 2.00388 8.81261 3.22053 8.80511 5.36041C8.80511 5.72541 8.80511 6.31227 8.80511 7.54324C8.80511 8.445 8.80511 10.5777 8.80511 10.5777C8.80511 10.5777 8.80511 12.3669 8.80511 13.3546C8.80511 14.9935 8.80511 16.0097 8.80511 16.5393C8.81261 18.1138 8.95511 19.1945 9.21011 20.3682C9.12761 20.2251 9.03011 20.082 8.90261 19.9317C8.64011 19.6311 7.82261 18.7436 7.06511 17.9492C6.30011 17.1548 5.59511 16.432 5.59511 16.432C5.59511 16.432 4.88261 15.7235 4.09511 14.9362C3.30011 14.1633 2.40761 13.3402 2.10011 13.0754C1.53761 12.5816 1.04261 12.4814 0.262609 12.417C0.420108 13.1542 0.562608 13.5979 1.10261 14.0917C1.39511 14.3565 2.27261 15.1581 3.05261 15.9238C3.82511 16.6896 4.53011 17.391 4.53011 17.391C4.53011 17.391 5.22011 18.1067 5.97011 18.8939C6.71261 19.6955 7.53011 20.5615 7.80011 20.8549C8.30261 21.3916 8.77511 21.5419 9.54011 21.7065L9.54011 21.6994Z" fill="#84C3A4"/>
</g>
<defs>
<clipPath id="clip0_1791_18828">
<rect width="22" height="18" fill="white" transform="translate(18) rotate(90)"/>
</clipPath>
</defs>
</svg>
