<svg width="24" height="25" viewBox="0 0 24 25" fill="none" xmlns="http://www.w3.org/2000/svg">
<g clip-path="url(#clip0_1117_3625)">
<path d="M23.87 6.37997C23.71 5.66997 22.78 5.03997 21.8 4.71997C20.74 4.38997 15.43 2.75997 15.43 2.75997C15.43 2.75997 10.12 1.11997 9.06 0.799971C8.08 0.509971 7.42 0.659971 6.42 1.00997C7.06 1.85997 7.50999 2.34997 8.49 2.66997C9.55 2.99997 14.86 4.62997 14.86 4.62997C14.86 4.62997 20.17 6.26997 21.23 6.58997C21.37 6.62997 21.49 6.63997 21.61 6.66997C20.08 6.93997 18.66 7.38997 16.79 8.31997C16.12 8.65997 14.83 9.33997 12.86 10.59C12.25 11 11.39 11.55 10.71 12.07C10.02 12.56 9.51 12.97 9.51 12.97C9.51 12.97 8.88 13.45 8.14 14.06C7.4 14.67 6.56 15.41 6.08 15.88C4.81 17.08 4.23 17.7 3.88 18.08C1.83 20.35 1.01 21.96 0.119995 24.37C2.05 22.65 3.32 21.56 5.31 19.41C5.65 19.05 6.2 18.46 7.42 17.3C7.88 16.86 8.69 16.14 9.39 15.55C10.09 14.96 10.7 14.5 10.7 14.5C10.7 14.5 11.2 14.11 11.86 13.64C12.51 13.15 13.34 12.62 13.92 12.23C15.81 11.03 17.05 10.38 17.69 10.04C19.73 8.99997 21.04 8.19997 22.54 7.22997C22.26 7.49997 22.02 7.80997 21.81 8.22997C21.55 8.74997 20.79 10.35 20.14 11.82C19.5 13.3 18.92 14.65 18.92 14.65C18.92 14.65 18.36 16.01 17.75 17.5C17.15 19 16.54 20.65 16.35 21.21C16 22.23 16.11 22.93 16.41 23.98C17.29 23.33 17.81 22.88 18.19 21.88C18.4 21.34 19.01 19.72 19.58 18.23C20.18 16.75 20.72 15.41 20.72 15.41C20.72 15.41 21.3 14.08 21.94 12.62C22.61 11.17 23.34 9.59997 23.58 9.06997C24.02 8.11997 24.04 7.07997 23.88 6.35997L23.87 6.37997Z" fill="black"/>
</g>
<defs>
<clipPath id="clip0_1117_3625">
<rect width="24" height="24" fill="white" transform="translate(0 0.5)"/>
</clipPath>
</defs>
</svg>
