<svg width="20" height="16" viewBox="0 0 20 16" fill="none" xmlns="http://www.w3.org/2000/svg">
<g clip-path="url(#clip0_1741_6783)">
<path d="M19.7268 7.52001C19.5902 6.86668 19.46 6.46001 18.9916 6.05335C18.4776 5.61335 15.9077 3.43335 15.9077 3.43335C15.9077 3.43335 13.3377 1.24668 12.8237 0.813346C12.3423 0.420013 11.9324 0.360013 11.2818 0.34668C11.4184 1.00001 11.5485 1.40668 12.017 1.81335C12.5309 2.25335 15.1009 4.43335 15.1009 4.43335C15.1009 4.43335 17.6708 6.62001 18.1848 7.05335C18.2629 7.12001 18.341 7.16001 18.419 7.21335C17.3976 7.00001 16.4412 6.88001 15.0488 6.87335C14.5674 6.87335 13.6435 6.87335 12.1536 6.87335C11.2492 6.87335 9.62268 6.87335 9.62268 6.87335C9.62268 6.87335 7.67733 6.87335 6.85756 6.87335C5.73849 6.87335 5.20499 6.87335 4.87317 6.87335C2.92132 6.88668 1.81527 7.10668 0.188721 7.52668C1.82177 7.94001 2.92782 8.16668 4.87317 8.17335C5.20499 8.17335 5.73849 8.17335 6.85756 8.17335C7.67733 8.17335 9.61618 8.17335 9.61618 8.17335C9.61618 8.17335 11.2427 8.17335 12.1406 8.17335C13.6305 8.17335 14.5544 8.17335 15.0358 8.17335C16.4672 8.16668 17.4496 8.04001 18.5166 7.81335C18.3865 7.88668 18.2564 7.97335 18.1198 8.08668C17.8465 8.32001 17.0397 9.04668 16.3175 9.72001C15.5954 10.4 14.9382 11.0267 14.9382 11.0267C14.9382 11.0267 14.2941 11.66 13.5784 12.36C12.8758 13.0667 12.1276 13.86 11.8868 14.1333C11.4379 14.6333 11.3468 15.0733 11.2883 15.7667C11.9584 15.6267 12.3618 15.5 12.8107 15.02C13.0514 14.76 13.7801 13.98 14.4763 13.2867C15.1725 12.6 15.8101 11.9733 15.8101 11.9733C15.8101 11.9733 16.4607 11.36 17.1764 10.6933C17.9051 10.0333 18.6923 9.30668 18.9591 9.06668C19.447 8.62001 19.5836 8.20001 19.7333 7.52001H19.7268Z" fill="#84C3A4"/>
</g>
<defs>
<clipPath id="clip0_1741_6783">
<rect width="20" height="16" fill="white"/>
</clipPath>
</defs>
</svg>
