<svg width="30" height="24" viewBox="0 0 30 24" fill="none" xmlns="http://www.w3.org/2000/svg">
<g clip-path="url(#clip0_2478_8834)">
<path d="M29.5901 11.2795C29.3851 10.2995 29.1899 9.68953 28.4873 9.07953C27.7163 8.41953 23.8614 5.14953 23.8614 5.14953C23.8614 5.14953 20.0064 1.86953 19.2355 1.21953C18.5133 0.629531 17.8984 0.539531 16.9225 0.519531C17.1275 1.49953 17.3226 2.10953 18.0253 2.71953C18.7963 3.37953 22.6512 6.64953 22.6512 6.64953C22.6512 6.64953 26.5061 9.92953 27.2771 10.5795C27.3942 10.6795 27.5113 10.7395 27.6284 10.8195C26.0962 10.4995 24.6616 10.3195 22.5731 10.3095C21.8509 10.3095 20.4651 10.3095 18.2303 10.3095C16.8737 10.3095 14.4339 10.3095 14.4339 10.3095C14.4339 10.3095 11.5159 10.3095 10.2862 10.3095C8.60762 10.3095 7.80736 10.3095 7.30963 10.3095C4.38185 10.3295 2.72278 10.6595 0.282959 11.2895C2.73254 11.9095 4.39161 12.2495 7.30963 12.2595C7.80736 12.2595 8.60762 12.2595 10.2862 12.2595C11.5159 12.2595 14.4241 12.2595 14.4241 12.2595C14.4241 12.2595 16.864 12.2595 18.2107 12.2595C20.4456 12.2595 21.8314 12.2595 22.5536 12.2595C24.7007 12.2495 26.1743 12.0595 27.7748 11.7195C27.5796 11.8295 27.3845 11.9595 27.1795 12.1295C26.7696 12.4795 25.5595 13.5695 24.4762 14.5795C23.3929 15.5995 22.4072 16.5395 22.4072 16.5395C22.4072 16.5395 21.4411 17.4895 20.3675 18.5395C19.3135 19.5995 18.1912 20.7895 17.8301 21.1995C17.1567 21.9495 17.0201 22.6095 16.9323 23.6495C17.9375 23.4395 18.5426 23.2495 19.2159 22.5295C19.577 22.1395 20.6701 20.9695 21.7143 19.9295C22.7586 18.8995 23.715 17.9595 23.715 17.9595C23.715 17.9595 24.6909 17.0395 25.7644 16.0395C26.8575 15.0495 28.0383 13.9595 28.4385 13.5995C29.1704 12.9295 29.3753 12.2995 29.5998 11.2795H29.5901Z" fill="black"/>
</g>
<defs>
<clipPath id="clip0_2478_8834">
<rect width="30" height="24" fill="white"/>
</clipPath>
</defs>
</svg>
