<svg width="18" height="22" viewBox="0 0 18 22" fill="none" xmlns="http://www.w3.org/2000/svg">
<g clip-path="url(#clip0_2478_4041)">
<path d="M9.54011 21.6999C10.2751 21.5496 10.7326 21.4064 11.1901 20.8912C11.6851 20.3258 14.1376 17.4988 14.1376 17.4988C14.1376 17.4988 16.5976 14.6719 17.0851 14.1065C17.5276 13.5769 17.5951 13.126 17.6101 12.4103C16.8751 12.5606 16.4176 12.7038 15.9601 13.2191C15.4651 13.7845 13.0126 16.6114 13.0126 16.6114C13.0126 16.6114 10.5526 19.4383 10.0651 20.0037C9.99011 20.0896 9.94511 20.1755 9.88511 20.2614C10.1251 19.1377 10.2601 18.0857 10.2676 16.5541C10.2676 16.0245 10.2676 15.0083 10.2676 13.3694C10.2676 12.3746 10.2676 10.5854 10.2676 10.5854C10.2676 10.5854 10.2676 8.44548 10.2676 7.54373C10.2676 6.31276 10.2676 5.7259 10.2676 5.3609C10.2526 3.21386 10.0051 1.99721 9.53261 0.208007C9.06761 2.00436 8.81261 3.22102 8.80511 5.3609C8.80511 5.7259 8.80511 6.31276 8.80511 7.54373C8.80511 8.44548 8.80511 10.5782 8.80511 10.5782C8.80511 10.5782 8.80511 12.3674 8.80511 13.355C8.80511 14.994 8.80511 16.0102 8.80511 16.5398C8.81261 18.1143 8.95511 19.195 9.21011 20.3687C9.12761 20.2256 9.03011 20.0824 8.90261 19.9321C8.64011 19.6316 7.82261 18.7441 7.06511 17.9497C6.30011 17.1553 5.59511 16.4325 5.59511 16.4325C5.59511 16.4325 4.88261 15.7239 4.09511 14.9367C3.30011 14.1638 2.40761 13.3407 2.10011 13.0759C1.53761 12.5821 1.04261 12.4819 0.262609 12.4175C0.420108 13.1547 0.562608 13.5984 1.10261 14.0922C1.39511 14.357 2.27261 15.1586 3.05261 15.9243C3.82511 16.6901 4.53011 17.3915 4.53011 17.3915C4.53011 17.3915 5.22011 18.1072 5.97011 18.8944C6.71261 19.696 7.53011 20.5619 7.80011 20.8554C8.30261 21.3921 8.77511 21.5424 9.54011 21.707L9.54011 21.6999Z" fill="black"/>
</g>
<defs>
<clipPath id="clip0_2478_4041">
<rect width="22" height="18" fill="white" transform="translate(18) rotate(90)"/>
</clipPath>
</defs>
</svg>
