<svg width="24" height="25" viewBox="0 0 24 25" fill="none" xmlns="http://www.w3.org/2000/svg">
<g clip-path="url(#clip0_1118_3652)">
<path d="M23.8701 6.37997C23.7101 5.66997 22.7801 5.03997 21.8001 4.71997C20.7401 4.38997 15.4301 2.75997 15.4301 2.75997C15.4301 2.75997 10.1201 1.11997 9.06012 0.799971C8.08012 0.509971 7.42012 0.659971 6.42012 1.00997C7.06012 1.85997 7.51012 2.34997 8.49012 2.66997C9.55012 2.99997 14.8601 4.62997 14.8601 4.62997C14.8601 4.62997 20.1701 6.26997 21.2301 6.58997C21.3701 6.62997 21.4901 6.63997 21.6101 6.66997C20.0801 6.93997 18.6601 7.38997 16.7901 8.31997C16.1201 8.65997 14.8301 9.33997 12.8601 10.59C12.2501 11 11.3901 11.55 10.7101 12.07C10.0201 12.56 9.51012 12.97 9.51012 12.97C9.51012 12.97 8.88012 13.45 8.14012 14.06C7.40012 14.67 6.56012 15.41 6.08012 15.88C4.81012 17.08 4.23012 17.7 3.88012 18.08C1.83012 20.35 1.01012 21.96 0.120117 24.37C2.05012 22.65 3.32012 21.56 5.31012 19.41C5.65012 19.05 6.20012 18.46 7.42012 17.3C7.88012 16.86 8.69012 16.14 9.39012 15.55C10.0901 14.96 10.7001 14.5 10.7001 14.5C10.7001 14.5 11.2001 14.11 11.8601 13.64C12.5101 13.15 13.3401 12.62 13.9201 12.23C15.8101 11.03 17.0501 10.38 17.6901 10.04C19.7301 8.99997 21.0401 8.19997 22.5401 7.22997C22.2601 7.49997 22.0201 7.80997 21.8101 8.22997C21.5501 8.74997 20.7901 10.35 20.1401 11.82C19.5001 13.3 18.9201 14.65 18.9201 14.65C18.9201 14.65 18.3601 16.01 17.7501 17.5C17.1501 19 16.5401 20.65 16.3501 21.21C16.0001 22.23 16.1101 22.93 16.4101 23.98C17.2901 23.33 17.8101 22.88 18.1901 21.88C18.4001 21.34 19.0101 19.72 19.5801 18.23C20.1801 16.75 20.7201 15.41 20.7201 15.41C20.7201 15.41 21.3001 14.08 21.9401 12.62C22.6101 11.17 23.3401 9.59997 23.5801 9.06997C24.0201 8.11997 24.0401 7.07997 23.8801 6.35997L23.8701 6.37997Z" fill="#84C3A4"/>
</g>
<defs>
<clipPath id="clip0_1118_3652">
<rect width="24" height="24" fill="white" transform="translate(0 0.5)"/>
</clipPath>
</defs>
</svg>
